<svg id="Ebene_1" data-name="Ebene 1" xmlns="http://www.w3.org/2000/svg" width="16" height="16" viewBox="0 0 16 16">
  <defs>
    <style>
      .cls-1 {
        fill: #6883a6;
      }

      .cls-2 {
        fill: #2d6d70;
      }

      .cls-3 {
        fill: #89e0c2;
      }

      .cls-4 {
        fill: none;
      }

      .cls-4, .cls-6 {
        stroke: red;
        stroke-miterlimit: 10;
        stroke-width: 2px;
      }

      .cls-5, .cls-6 {
        fill: red;
      }
    </style>
  </defs>
  <circle class="cls-1" cx="8.06" cy="8.12" r="7.44"/>
  <path class="cls-2" d="M2.8,2.87s-.4.17,1,.07,1.18-.1,1.48.3A2.22,2.22,0,0,1,5.75,5c0,1.18.1,1.48-.89,2.37A6.37,6.37,0,0,1,2.2,8.76,4.46,4.46,0,0,1,.68,9,7.33,7.33,0,0,1,2.8,2.87Z"/>
  <path class="cls-3" d="M14.43,4.37s-.07-.43-.32.93-.2,1.17-.66,1.36a2.27,2.27,0,0,1-1.84,0c-1.14-.3-1.45-.28-2.06-1.46a6.27,6.27,0,0,1-.67-2.92A4.47,4.47,0,0,1,9,.77,7.34,7.34,0,0,1,14.43,4.37Z"/>
  <path class="cls-2" d="M1.61,9.94a5.82,5.82,0,0,1,3.65.59c2.07,1,3.25,2.17,3.15,2.66s-1.68.69-2.37,1-1.67.1-1.87-.29S1.81,12,1.71,11.22A11.3,11.3,0,0,1,1.61,9.94Z"/>
  <g>
    <g>
      <path class="cls-4" d="M2.23,4.3,5.56,5.77a4.45,4.45,0,0,1,2.8,4.15"/>
      <polygon class="cls-5" points="5.58 9.03 8.26 13.94 11.17 9.17 5.58 9.03"/>
    </g>
    <line class="cls-6" x1="12.34" y1="15.06" x2="4.14" y2="15.09"/>
  </g>
</svg>
